<?xml version="1.0" encoding="UTF-8"?><svg xmlns="http://www.w3.org/2000/svg" xmlns:xlink="http://www.w3.org/1999/xlink" viewBox="0 0 250 250"><defs><style>.cls-1{filter:url(#outer-glow-15);stroke:#f700ff;stroke-width:7px;}.cls-1,.cls-2{fill:none;stroke-miterlimit:10;}.cls-2{filter:url(#outer-glow-16);stroke:#fff;stroke-width:4px;}</style><filter id="outer-glow-15" filterUnits="userSpaceOnUse"><feOffset dx="0" dy="0"/><feGaussianBlur result="blur" stdDeviation="10"/><feFlood flood-color="#fff" flood-opacity=".85"/><feComposite in2="blur" operator="in"/><feComposite in="SourceGraphic"/></filter><filter id="outer-glow-16" filterUnits="userSpaceOnUse"><feOffset dx="0" dy="0"/><feGaussianBlur result="blur-2" stdDeviation="4"/><feFlood flood-color="#fff" flood-opacity=".85"/><feComposite in2="blur-2" operator="in"/><feComposite in="SourceGraphic"/></filter></defs><g id="Back_Heart"><polygon class="cls-1" points="100.66 236.54 145.54 236.54 145.54 192.32 189.43 192.32 189.43 147.77 235.63 147.77 235.63 14.77 146.86 14.77 146.86 59.66 102.97 59.66 102.97 14.77 13.87 14.77 13.87 148.1 57.43 148.1 57.43 192.32 100.66 192.32 100.66 236.54"/></g><g id="Heart_Outline"><polygon class="cls-2" points="100.66 236.54 145.54 236.54 145.54 192.32 189.43 192.32 189.43 147.77 235.63 147.77 235.63 14.77 146.86 14.77 146.86 59.66 102.97 59.66 102.97 14.77 13.87 14.77 13.87 148.1 57.43 148.1 57.43 192.32 100.66 192.32 100.66 236.54"/></g></svg>