<?xml version="1.0" encoding="UTF-8"?><svg xmlns="http://www.w3.org/2000/svg" xmlns:xlink="http://www.w3.org/1999/xlink" viewBox="0 0 256.19 256.19"><defs><style>.cls-1{filter:url(#outer-glow-20);}.cls-1,.cls-2,.cls-3,.cls-4,.cls-5,.cls-6,.cls-7,.cls-8,.cls-9,.cls-10,.cls-11,.cls-12,.cls-13,.cls-14,.cls-15{fill:none;stroke-miterlimit:10;}.cls-1,.cls-2,.cls-3,.cls-13,.cls-14,.cls-15{stroke:#fff;stroke-width:.75px;}.cls-2{filter:url(#outer-glow-22);}.cls-4,.cls-5,.cls-6,.cls-7,.cls-8,.cls-9,.cls-10,.cls-11,.cls-12{stroke-width:2px;}.cls-4,.cls-5,.cls-6,.cls-7,.cls-8,.cls-9,.cls-10,.cls-11,.cls-13,.cls-14,.cls-15{stroke-linecap:round;}.cls-4,.cls-11,.cls-12{stroke:#f0f;}.cls-5{filter:url(#outer-glow-12);}.cls-5,.cls-6,.cls-7,.cls-8,.cls-9,.cls-10{stroke:#f800ff;}.cls-6{filter:url(#outer-glow-13);}.cls-7{filter:url(#outer-glow-14);}.cls-8{filter:url(#outer-glow-16);}.cls-9{filter:url(#outer-glow-15);}.cls-10{filter:url(#outer-glow-17);}.cls-11{filter:url(#outer-glow-11);}.cls-12{filter:url(#outer-glow-18);}.cls-13{filter:url(#outer-glow-28);}.cls-14{filter:url(#outer-glow-29);}.cls-15{filter:url(#outer-glow-30);}</style><filter id="outer-glow-11" filterUnits="userSpaceOnUse"><feOffset dx="0" dy="0"/><feGaussianBlur result="blur" stdDeviation="4"/><feFlood flood-color="#fff" flood-opacity=".85"/><feComposite in2="blur" operator="in"/><feComposite in="SourceGraphic"/></filter><filter id="outer-glow-12" filterUnits="userSpaceOnUse"><feOffset dx="0" dy="0"/><feGaussianBlur result="blur-2" stdDeviation="4"/><feFlood flood-color="#fff" flood-opacity=".85"/><feComposite in2="blur-2" operator="in"/><feComposite in="SourceGraphic"/></filter><filter id="outer-glow-13" filterUnits="userSpaceOnUse"><feOffset dx="0" dy="0"/><feGaussianBlur result="blur-3" stdDeviation="4"/><feFlood flood-color="#fff" flood-opacity=".85"/><feComposite in2="blur-3" operator="in"/><feComposite in="SourceGraphic"/></filter><filter id="outer-glow-14" filterUnits="userSpaceOnUse"><feOffset dx="0" dy="0"/><feGaussianBlur result="blur-4" stdDeviation="4"/><feFlood flood-color="#fff" flood-opacity=".85"/><feComposite in2="blur-4" operator="in"/><feComposite in="SourceGraphic"/></filter><filter id="outer-glow-15" filterUnits="userSpaceOnUse"><feOffset dx="0" dy="0"/><feGaussianBlur result="blur-5" stdDeviation="4"/><feFlood flood-color="#fff" flood-opacity=".85"/><feComposite in2="blur-5" operator="in"/><feComposite in="SourceGraphic"/></filter><filter id="outer-glow-16" filterUnits="userSpaceOnUse"><feOffset dx="0" dy="0"/><feGaussianBlur result="blur-6" stdDeviation="4"/><feFlood flood-color="#fff" flood-opacity=".85"/><feComposite in2="blur-6" operator="in"/><feComposite in="SourceGraphic"/></filter><filter id="outer-glow-17" filterUnits="userSpaceOnUse"><feOffset dx="0" dy="0"/><feGaussianBlur result="blur-7" stdDeviation="4"/><feFlood flood-color="#fff" flood-opacity=".85"/><feComposite in2="blur-7" operator="in"/><feComposite in="SourceGraphic"/></filter><filter id="outer-glow-18" filterUnits="userSpaceOnUse"><feOffset dx="0" dy="0"/><feGaussianBlur result="blur-8" stdDeviation="4"/><feFlood flood-color="#fff" flood-opacity=".85"/><feComposite in2="blur-8" operator="in"/><feComposite in="SourceGraphic"/></filter><filter id="outer-glow-20" filterUnits="userSpaceOnUse"><feOffset dx="0" dy="0"/><feGaussianBlur result="blur-9" stdDeviation="4"/><feFlood flood-color="#fff" flood-opacity=".85"/><feComposite in2="blur-9" operator="in"/><feComposite in="SourceGraphic"/></filter><filter id="outer-glow-22" filterUnits="userSpaceOnUse"><feOffset dx="0" dy="0"/><feGaussianBlur result="blur-10" stdDeviation="4"/><feFlood flood-color="#fff" flood-opacity=".85"/><feComposite in2="blur-10" operator="in"/><feComposite in="SourceGraphic"/></filter><filter id="outer-glow-28" filterUnits="userSpaceOnUse"><feOffset dx="0" dy="0"/><feGaussianBlur result="blur-11" stdDeviation="4"/><feFlood flood-color="#fff" flood-opacity=".85"/><feComposite in2="blur-11" operator="in"/><feComposite in="SourceGraphic"/></filter><filter id="outer-glow-29" filterUnits="userSpaceOnUse"><feOffset dx="0" dy="0"/><feGaussianBlur result="blur-12" stdDeviation="4"/><feFlood flood-color="#fff" flood-opacity=".85"/><feComposite in2="blur-12" operator="in"/><feComposite in="SourceGraphic"/></filter><filter id="outer-glow-30" filterUnits="userSpaceOnUse"><feOffset dx="0" dy="0"/><feGaussianBlur result="blur-13" stdDeviation="4"/><feFlood flood-color="#fff" flood-opacity=".85"/><feComposite in2="blur-13" operator="in"/><feComposite in="SourceGraphic"/></filter></defs><g id="Neon_2"><path class="cls-11" d="m211.47,191.04s-12.59-70.82-35.41-73.96c0,0-39.34-4.72-48.78,1.57l47.58,42.91c1.78,2.01,1.56,4.46-.23,6.03h0c-1,.75-3.52,1.76-5.71-.23-12.18-11.03-44.85-39.41-56.58-40.06,0,0-26.75,17.31-34.62,30.69,0,0,56.37,9.05,73.55,29.1,1.79,2.08,1.96,5.1.39,7.35h0c-1.73,2.47-5.03,3.27-7.69,1.85-12.36-6.59-47.96-22.39-83.57-8.41,0,0-14.95,20.46-17.31,50.36,0,0,51.17-24.56,88.71-5.71,2.36,1.19,1.5,4.76-1.14,4.79-18.21.15-58.92,2.62-80.49,20.59h207.73v-110.95s-22.82,11.8-46.42,44.06Z"/><path class="cls-5" d="m211.57,190.71s-22.36,33.92-28.9,67.85"/><path class="cls-6" d="m205.95,199.26s-7.2-32.08-25.8-50.51"/><path class="cls-7" d="m199.92,210.65s-26.97-37.94-67.26-48.08"/><path class="cls-9" d="m199.75,211.9s26.97-24.06,67.26-30.49"/><path class="cls-8" d="m190.46,232.01s31.14-16.33,77.65-20.69"/><path class="cls-10" d="m190.54,232.09s-37.69-28.65-87.28-20.52"/><path class="cls-12" d="m198.92,146.32s35.18-18.09,38.53-37.52c3.35-19.43,0-35.18-5.36-36.18s-36.18,9.38-36.18,9.38c0,0,2.64-31.11,8.47-40.31.47-.74,0-1.7-.86-1.79-10.58-1.03-58.38-4.71-83.26,9.78-1.18.69-.5,2.52.85,2.28,10.7-1.89,33.2-4.41,45.09,4.96,2.27,1.79,2.87,4.99,1.54,7.56h0c-1.46,2.81-4.81,4.06-7.74,2.87-10.37-4.22-35.15-12.38-60.65-6.59-1.27.29-2.43.96-3.35,1.89l-18.89,19.17c-.59.6-.02,1.59.79,1.38,8.76-2.28,34.79-8.21,46.59-1.64,3.43,1.91,4.79,6.16,3.34,9.8h0c-1.03,2.58-3.34,4.43-6.08,4.89-7.07,1.19-21.12,2.84-31.71-.53-14.74-4.69-19.43,3.69-19.43,3.69,0,0-1.01,13.4-7.71,21.11s-19.77,27.81-19.77,42.22c0,0,36.18-32.83,59.97-28.81"/><path class="cls-4" d="m195.9,81.99s-53.94,14.53-78.07,30.82c0,0-19.6,1.51-38.7,10.55"/><path class="cls-4" d="m185.68,84.67s3.52-29.65-9.55-38.19"/><path class="cls-4" d="m165.08,91.71s-19.1-25.63-55.28-21.11"/></g><g id="Monstera_1"><path class="cls-1" d="m211.47,191.04s-12.59-70.82-35.41-73.96c0,0-39.34-4.72-48.78,1.57l47.58,42.91c1.78,2.01,1.56,4.46-.23,6.03h0c-1,.75-3.52,1.76-5.71-.23-12.18-11.03-44.85-39.41-56.58-40.06,0,0-26.75,17.31-34.62,30.69,0,0,56.37,9.05,73.55,29.1,1.79,2.08,1.96,5.1.39,7.35h0c-1.73,2.47-5.03,3.27-7.69,1.85-12.36-6.59-47.96-22.39-83.57-8.41,0,0-14.95,20.46-17.31,50.36,0,0,51.17-24.56,88.71-5.71,2.36,1.19,1.5,4.76-1.14,4.79-18.21.15-58.92,2.62-80.49,20.59h207.73v-110.95s-22.82,11.8-46.42,44.06Z"/></g><g id="Monstera_2"><path class="cls-2" d="m198.92,146.32s35.18-18.09,38.53-37.52c3.35-19.43,0-35.18-5.36-36.18s-36.18,9.38-36.18,9.38c0,0,2.64-31.11,8.47-40.31.47-.74,0-1.7-.86-1.79-10.58-1.03-58.38-4.71-83.26,9.78-1.18.69-.5,2.52.85,2.28,10.7-1.89,33.2-4.41,45.09,4.96,2.27,1.79,2.87,4.99,1.54,7.56h0c-1.46,2.81-4.81,4.06-7.74,2.87-10.37-4.22-35.15-12.38-60.65-6.59-1.27.29-2.43.96-3.35,1.89l-18.89,19.17c-.59.6-.02,1.59.79,1.38,8.76-2.28,34.79-8.21,46.59-1.64,3.43,1.91,4.79,6.16,3.34,9.8h0c-1.03,2.58-3.34,4.43-6.08,4.89-7.07,1.19-21.12,2.84-31.71-.53-14.74-4.69-19.43,3.69-19.43,3.69,0,0-1.01,13.4-7.71,21.11s-19.77,27.81-19.77,42.22c0,0,36.18-32.83,59.97-28.81"/></g><g id="Monstera_Veins"><path class="cls-3" d="m211.57,190.71s-22.36,33.92-28.9,67.85"/><path class="cls-3" d="m205.95,199.26s-7.2-32.08-25.8-50.51"/><path class="cls-3" d="m199.92,210.65s-26.97-37.94-67.26-48.08"/><path class="cls-3" d="m199.75,211.9s26.97-24.06,67.26-30.49"/><path class="cls-3" d="m190.46,232.01s31.14-16.33,77.65-20.69"/><path class="cls-3" d="m190.54,232.09s-37.69-28.65-87.28-20.52"/><path class="cls-13" d="m195.9,81.99s-53.94,14.53-78.07,30.82c0,0-19.6,1.51-38.7,10.55"/><path class="cls-14" d="m185.68,84.67s3.52-29.65-9.55-38.19"/><path class="cls-15" d="m165.08,91.71s-19.1-25.63-55.28-21.11"/></g></svg>